<svg width="18" height="21" viewBox="0 0 18 21" fill="none" xmlns="http://www.w3.org/2000/svg">
<g clip-path="url(#clip0_291_1179)">
<path d="M10.3008 17.8078L9.41257 18.696C9.0365 19.0721 8.42837 19.0721 8.05629 18.696L0.278642 10.9223C-0.0974379 10.5463 -0.0974379 9.93813 0.278642 9.56605L8.05629 1.78841C8.43237 1.41233 9.0405 1.41233 9.41257 1.78841L10.3008 2.6766C10.6808 3.05668 10.6728 3.67681 10.2848 4.04889L5.46374 8.64186H16.9622C17.4943 8.64186 17.9224 9.06995 17.9224 9.60206V10.8823C17.9224 11.4144 17.4943 11.8425 16.9622 11.8425H5.46374L10.2848 16.4355C10.6768 16.8076 10.6848 17.4277 10.3008 17.8078Z" fill="black"/>
</g>
<defs>
<clipPath id="clip0_291_1179">
<rect width="17.9238" height="20.4843" fill="white"/>
</clipPath>
</defs>
</svg>
